# xmcd
#
# Track frame offsets:
#	150
#	19300
#	48155
#	61708
#	70358
#	81563
#	99323
#	119330
#	130135
#	144603
#	162748
#	171638
#	187700
#
# Disc length: 3086 seconds
#
# Revision: 1
# Processed by: cddbd v1.5.1PL0 Copyright (c) Steve Scherf et al.
# Submitted via: CDex 1.50Beta5
#
DISCID=b90c0c0d
DTITLE=シンフォニック・オーケストラ・ヤマト - 「宇宙戦艦ヤマト」完結編音楽集 Disc 2
DYEAR=1995
DGENRE=
TTITLE0=二つの銀河
TTITLE1=水没するディンギル星
TTITLE2=移動要塞
TTITLE3=ハイパー放射ミサイル
TTITLE4=大魔神
TTITLE5=ファイナル ヤマト
TTITLE6=悲しみ
TTITLE7=超巨大戦艦ガルンボルスト
TTITLE8=古代とヤマト
TTITLE9=薄幸のディンギル少年
TTITLE10=二人のコスモゼロ
TTITLE11=アクエリアス レクイエム
TTITLE12=SYMPHONY OF THE AQUARIUS
EXTD=
EXTT0=
EXTT1=
EXTT2=
EXTT3=
EXTT4=
EXTT5=
EXTT6=
EXTT7=
EXTT8=
EXTT9=
EXTT10=
EXTT11=
EXTT12=
PLAYORDER=
